<svg xmlns="http://www.w3.org/2000/svg" xmlns:xlink="http://www.w3.org/1999/xlink" viewBox="0 0 500 500"><defs><clipPath id="freepik--clip-path--inject-49"><path d="M401.41,422.36c-6.77,11-41.12,16.21-59.87,15.72s-72.7-26-76.36-31.44c-3.39-5-11.72-21.57,1.12-31.58a24.88,24.88,0,0,1,3.46-2.24c8.79-4.76,67.25,10.25,67.25,10.25s3.62-2.29,4.95-2.12c4.08.52,7,3.82,15.24,6.17,5.77,1.65,21.52-4.69,31.58.76a13.88,13.88,0,0,1,3.06,2.22C401.24,399.08,408.17,411.33,401.41,422.36Z" style="fill:#407BFF;stroke:#263238;stroke-linecap:round;stroke-linejoin:round"></path></clipPath><clipPath id="freepik--clip-path-2--inject-49"><path d="M332.16,431.92l17.52,13.75a200.72,200.72,0,0,0,25.12-3.76h0c8.3-1.92,15.55-4.67,15.94-8.45.61-5.74-5.53-7.31-12.82-7.09-1.36,0-2.76.14-4.17.28-11.67,1.25-26.51-5.19-26.51-5.19Z" style="fill:#263238;stroke:#263238;stroke-linecap:round;stroke-linejoin:round"></path></clipPath><clipPath id="freepik--clip-path-3--inject-49"><path d="M348.49,437.34c-3.16.51.31,7,4.59,5S351.65,436.82,348.49,437.34Z" style="fill:#fff;stroke:#263238;stroke-linecap:round;stroke-linejoin:round"></path></clipPath><clipPath id="freepik--clip-path-4--inject-49"><path d="M374.8,441.9c8.3-1.92,15.55-4.67,15.94-8.45.61-5.74-5.53-7.31-12.82-7.09C377.6,426.67,370.53,433.5,374.8,441.9Z" style="fill:#fff;stroke:#263238;stroke-linecap:round;stroke-linejoin:round"></path></clipPath><clipPath id="freepik--clip-path-5--inject-49"><path d="M321.39,432.45l-18.86,11.83a201.2,201.2,0,0,1-24.59-6.37h0c-8.05-2.78-15-6.28-15-10.08,0-5.78,6.27-6.69,13.5-5.71,1.35.18,2.73.43,4.12.72,11.47,2.47,26.9-2.38,26.9-2.38Z" style="fill:#263238;stroke:#263238;stroke-linecap:round;stroke-linejoin:round"></path></clipPath></defs><g id="freepik--Window--inject-49"><path d="M53.48,109.9H304.93a4.24,4.24,0,0,1,4.24,4.24V126a0,0,0,0,1,0,0H49.24a0,0,0,0,1,0,0V114.14A4.24,4.24,0,0,1,53.48,109.9Z" style="fill:#407BFF;stroke:#263238;stroke-linecap:round;stroke-linejoin:round"></path><rect x="60.62" y="128.97" width="262.71" height="184.87" style="fill:#fff;stroke:#263238;stroke-linecap:round;stroke-linejoin:round"></rect><path d="M327.35,117.94a4,4,0,1,1-4-4A4,4,0,0,1,327.35,117.94Z" style="fill:#fff;stroke:#263238;stroke-linecap:round;stroke-linejoin:round"></path><path d="M313.19,117.94a4,4,0,1,1-4-4A4,4,0,0,1,313.19,117.94Z" style="fill:#fff;stroke:#263238;stroke-linecap:round;stroke-linejoin:round"></path><path d="M299,117.94a4,4,0,1,1-4-4A4,4,0,0,1,299,117.94Z" style="fill:#fff;stroke:#263238;stroke-linecap:round;stroke-linejoin:round"></path><line x1="315.37" y1="136.9" x2="304.97" y2="136.9" style="fill:none;stroke:#263238;stroke-linecap:round;stroke-linejoin:round;stroke-width:2px"></line><line x1="315.37" y1="141.12" x2="304.97" y2="141.12" style="fill:none;stroke:#263238;stroke-linecap:round;stroke-linejoin:round;stroke-width:2px"></line><line x1="315.37" y1="145.34" x2="304.97" y2="145.34" style="fill:none;stroke:#263238;stroke-linecap:round;stroke-linejoin:round;stroke-width:2px"></line><line x1="78.81" y1="245.98" x2="157.54" y2="245.98" style="fill:none;stroke:#263238;stroke-linecap:round;stroke-linejoin:round;stroke-width:2px"></line><line x1="78.81" y1="252.19" x2="157.54" y2="252.19" style="fill:none;stroke:#263238;stroke-linecap:round;stroke-linejoin:round;stroke-width:2px"></line><line x1="78.81" y1="258.51" x2="140.89" y2="258.51" style="fill:none;stroke:#263238;stroke-linecap:round;stroke-linejoin:round;stroke-width:2px"></line><line x1="245.76" y1="131.05" x2="245.76" y2="131.55" style="fill:none;stroke:#263238;stroke-linecap:round;stroke-linejoin:round"></line><line x1="245.76" y1="134.55" x2="245.76" y2="308.78" style="fill:none;stroke:#263238;stroke-linecap:round;stroke-linejoin:round;stroke-dasharray:0.998449981212616,2.995349884033203"></line><line x1="245.76" y1="310.28" x2="245.76" y2="310.78" style="fill:none;stroke:#263238;stroke-linecap:round;stroke-linejoin:round"></line><line x1="63.78" y1="272.38" x2="64.28" y2="272.38" style="fill:none;stroke:#263238;stroke-linecap:round;stroke-linejoin:round"></line><line x1="67.27" y1="272.38" x2="317.31" y2="272.38" style="fill:none;stroke:#263238;stroke-linecap:round;stroke-linejoin:round;stroke-dasharray:0.9981380105018616,2.9944100379943848"></line><line x1="318.81" y1="272.38" x2="319.31" y2="272.38" style="fill:none;stroke:#263238;stroke-linecap:round;stroke-linejoin:round"></line><rect x="244.04" y="270.65" width="3.45" height="3.45" style="fill:#fff;stroke:#263238;stroke-linecap:round;stroke-linejoin:round"></rect><line x1="231.99" y1="239.24" x2="185.93" y2="239.24" style="fill:none;stroke:#263238;stroke-linecap:round;stroke-linejoin:round"></line><path d="M232.88,260.54s0-21.41-23.92-21.41S185,260.54,185,260.54" style="fill:none;stroke:#263238;stroke-linecap:round;stroke-linejoin:round"></path><circle cx="232.88" cy="260.54" r="2.02" style="fill:#407BFF;stroke:#263238;stroke-linecap:round;stroke-linejoin:round"></circle><path d="M183,260.54a2,2,0,1,1,2,2A2,2,0,0,1,183,260.54Z" style="fill:#407BFF;stroke:#263238;stroke-linecap:round;stroke-linejoin:round"></path><rect x="231.11" y="237.36" width="3.54" height="3.54" transform="translate(465.76 478.26) rotate(180)" style="fill:#407BFF;stroke:#263238;stroke-linecap:round;stroke-linejoin:round"></rect><rect x="207.19" y="237.36" width="3.54" height="3.54" transform="translate(417.92 478.26) rotate(180)" style="fill:#407BFF;stroke:#263238;stroke-linecap:round;stroke-linejoin:round"></rect><rect x="183.27" y="237.36" width="3.54" height="3.54" transform="translate(370.08 478.26) rotate(180)" style="fill:#407BFF;stroke:#263238;stroke-linecap:round;stroke-linejoin:round"></rect><path d="M107.43,174.87v-7.08l-5.29-.45a15.09,15.09,0,0,0-1.31-3.18l3.42-4.06-5-5-4.07,3.42A14.22,14.22,0,0,0,92,157.21l-.46-5.3H84.48l-.46,5.3a14,14,0,0,0-3.17,1.31l-4.07-3.42-5,5,3.42,4.06a14.58,14.58,0,0,0-1.31,3.18l-5.3.45v7.08l5.3.45a14.78,14.78,0,0,0,1.31,3.18l-3.42,4.06,5,5,4.07-3.42A14,14,0,0,0,84,185.45l.46,5.3h7.07l.46-5.3a14.22,14.22,0,0,0,3.17-1.31l4.07,3.42,5-5-3.42-4.06a15.31,15.31,0,0,0,1.31-3.18ZM88,179.55a8.22,8.22,0,1,1,8.22-8.22A8.22,8.22,0,0,1,88,179.55Z" style="fill:#407BFF;stroke:#263238;stroke-linecap:round;stroke-linejoin:round"></path><path d="M131.47,190.73v-4.84l-3.63-.32a9.81,9.81,0,0,0-.89-2.17l2.34-2.78-3.43-3.42-2.78,2.34a10.34,10.34,0,0,0-2.17-.9L120.6,175h-4.84l-.32,3.63a10.34,10.34,0,0,0-2.17.9l-2.78-2.34-3.43,3.42,2.35,2.78a9.38,9.38,0,0,0-.9,2.17l-3.63.32v4.84l3.63.31a9.2,9.2,0,0,0,.9,2.17L107.06,196l3.43,3.42,2.78-2.34a10.34,10.34,0,0,0,2.17.9l.32,3.62h4.84l.31-3.62a10.34,10.34,0,0,0,2.17-.9l2.78,2.34,3.43-3.42L127,193.21a9.61,9.61,0,0,0,.89-2.17Zm-13.29,3.2a5.63,5.63,0,1,1,5.62-5.62A5.63,5.63,0,0,1,118.18,193.93Z" style="fill:#407BFF;stroke:#263238;stroke-linecap:round;stroke-linejoin:round"></path><line x1="255.64" y1="284.14" x2="294.37" y2="284.14" style="fill:none;stroke:#263238;stroke-linecap:round;stroke-linejoin:round;stroke-width:2px"></line><line x1="255.64" y1="290.35" x2="294.37" y2="290.35" style="fill:none;stroke:#263238;stroke-linecap:round;stroke-linejoin:round;stroke-width:2px"></line><line x1="255.64" y1="296.67" x2="277.72" y2="296.67" style="fill:none;stroke:#263238;stroke-linecap:round;stroke-linejoin:round;stroke-width:2px"></line><path d="M204.61,299.25H184.22a5,5,0,0,1-5-5h0a5,5,0,0,1,5-5h20.39a5,5,0,0,1,5,5h0A5,5,0,0,1,204.61,299.25Z" style="fill:#407BFF;stroke:#263238;stroke-linecap:round;stroke-linejoin:round"></path><path d="M242.61,299.25H222.22a5,5,0,0,1-5-5h0a5,5,0,0,1,5-5h20.39a5,5,0,0,1,5,5h0A5,5,0,0,1,242.61,299.25Z" style="fill:#407BFF;stroke:#263238;stroke-linecap:round;stroke-linejoin:round"></path><rect x="258.47" y="191.97" width="43.24" height="43.24" style="fill:#fff;stroke:#263238;stroke-linecap:round;stroke-linejoin:round"></rect><line x1="258.47" y1="191.97" x2="301.71" y2="235.21" style="fill:#fff;stroke:#263238;stroke-linecap:round;stroke-linejoin:round"></line><line x1="301.71" y1="191.97" x2="258.47" y2="235.21" style="fill:#fff;stroke:#263238;stroke-linecap:round;stroke-linejoin:round"></line><polygon points="275.43 142.88 275.43 152.97 270.98 157.42 260.89 157.42 260.89 142.88 275.43 142.88" style="fill:#fff;stroke:#263238;stroke-linecap:round;stroke-linejoin:round"></polygon><polygon points="275.43 152.97 270.98 157.42 270.98 152.97 275.43 152.97" style="fill:#fff;stroke:#263238;stroke-linecap:round;stroke-linejoin:round"></polygon><polygon points="120.8 220.91 120.8 231 116.35 235.46 106.26 235.46 106.26 220.91 120.8 220.91" style="fill:#fff;stroke:#263238;stroke-linecap:round;stroke-linejoin:round"></polygon><polygon points="120.8 231 116.35 235.46 116.35 231 120.8 231" style="fill:#fff;stroke:#263238;stroke-linecap:round;stroke-linejoin:round"></polygon><polygon points="65.86 283.08 65.86 293.17 61.41 297.62 51.31 297.62 51.31 283.08 65.86 283.08" style="fill:#fff;stroke:#263238;stroke-linecap:round;stroke-linejoin:round"></polygon><polygon points="65.86 293.17 61.41 297.62 61.41 293.17 65.86 293.17" style="fill:#fff;stroke:#263238;stroke-linecap:round;stroke-linejoin:round"></polygon></g><g id="freepik--Screens--inject-49"><rect x="295.01" y="166.28" width="53.66" height="33.63" style="fill:#263238;stroke:#263238;stroke-linecap:round;stroke-linejoin:round"></rect><rect x="295.01" y="166.28" width="53.66" height="5.11" style="fill:#407BFF;stroke:#263238;stroke-linecap:round;stroke-linejoin:round"></rect><line x1="300.48" y1="175.7" x2="314.2" y2="175.7" style="fill:none;stroke:#fff;stroke-linecap:round;stroke-linejoin:round"></line><line x1="307.34" y1="179.53" x2="331.08" y2="179.53" style="fill:none;stroke:#fff;stroke-linecap:round;stroke-linejoin:round"></line><line x1="304.31" y1="183.1" x2="311.3" y2="183.1" style="fill:none;stroke:#fff;stroke-linecap:round;stroke-linejoin:round"></line><line x1="307.34" y1="187.31" x2="323.33" y2="187.31" style="fill:none;stroke:#fff;stroke-linecap:round;stroke-linejoin:round"></line><line x1="300.48" y1="191.13" x2="314.2" y2="191.13" style="fill:none;stroke:#fff;stroke-linecap:round;stroke-linejoin:round"></line><rect x="93.2" y="301.59" width="53.66" height="33.63" style="fill:#263238;stroke:#263238;stroke-linecap:round;stroke-linejoin:round"></rect><rect x="93.2" y="301.59" width="53.66" height="5.11" style="fill:#407BFF;stroke:#263238;stroke-linecap:round;stroke-linejoin:round"></rect><line x1="98.68" y1="311.02" x2="112.39" y2="311.02" style="fill:none;stroke:#fff;stroke-linecap:round;stroke-linejoin:round"></line><line x1="105.53" y1="314.84" x2="129.27" y2="314.84" style="fill:none;stroke:#fff;stroke-linecap:round;stroke-linejoin:round"></line><line x1="102.5" y1="318.41" x2="109.49" y2="318.41" style="fill:none;stroke:#fff;stroke-linecap:round;stroke-linejoin:round"></line><line x1="105.53" y1="322.62" x2="121.52" y2="322.62" style="fill:none;stroke:#fff;stroke-linecap:round;stroke-linejoin:round"></line><line x1="98.68" y1="326.45" x2="112.39" y2="326.45" style="fill:none;stroke:#fff;stroke-linecap:round;stroke-linejoin:round"></line></g><g id="freepik--speech-bubble--inject-49"><path d="M167,58h-49.3a2.19,2.19,0,0,0-2.18,2.18v23a2.18,2.18,0,0,0,2.18,2.17H139.8l2.52,9,2.53-9H167a2.18,2.18,0,0,0,2.18-2.17v-23A2.19,2.19,0,0,0,167,58Z" style="fill:#407BFF;stroke:#263238;stroke-linecap:round;stroke-linejoin:round"></path><line x1="123.7" y1="64.58" x2="160.95" y2="64.58" style="fill:none;stroke:#263238;stroke-linecap:round;stroke-linejoin:round;stroke-width:2px"></line><line x1="123.7" y1="69.3" x2="160.95" y2="69.3" style="fill:none;stroke:#263238;stroke-linecap:round;stroke-linejoin:round;stroke-width:2px"></line><line x1="123.7" y1="74.02" x2="160.95" y2="74.02" style="fill:none;stroke:#263238;stroke-linecap:round;stroke-linejoin:round;stroke-width:2px"></line><line x1="123.7" y1="78.74" x2="151.77" y2="78.74" style="fill:none;stroke:#263238;stroke-linecap:round;stroke-linejoin:round;stroke-width:2px"></line></g></svg>
